<svg width="30" height="30" viewBox="0 0 30 30" fill="none" xmlns="http://www.w3.org/2000/svg">
<rect x="15" y="9" width="8.48528" height="8.48528" transform="rotate(45 15 9)" fill="#513AB1"/>
<path d="M12.75 2.25C13.9926 1.00736 16.0074 1.00736 17.25 2.25C18.4926 3.49264 18.4926 5.50736 17.25 6.75L15 9L12.75 6.75C11.5074 5.50736 11.5074 3.49264 12.75 2.25Z" fill="#513AB1"/>
<path d="M27.75 17.25C28.9926 16.0074 28.9926 13.9926 27.75 12.75C26.5074 11.5074 24.4926 11.5074 23.25 12.75L21 15L23.25 17.25C24.4926 18.4926 26.5074 18.4926 27.75 17.25Z" fill="#513AB1"/>
<path d="M17.25 27.75C16.0074 28.9926 13.9926 28.9926 12.75 27.75C11.5074 26.5074 11.5074 24.4926 12.75 23.25L15 21L17.25 23.25C18.4926 24.4926 18.4926 26.5074 17.25 27.75Z" fill="#513AB1"/>
<path d="M2.25 12.75C1.00736 13.9926 1.00736 16.0074 2.25 17.25C3.49264 18.4926 5.50736 18.4926 6.75 17.25L9 15L6.75 12.75C5.50736 11.5074 3.49264 11.5074 2.25 12.75Z" fill="#513AB1"/>
</svg>
